<svg width="1440" height="900" xmlns="http://www.w3.org/2000/svg" viewBox="0 0 1440 900"><defs><linearGradient id="leaf" x2=".8" y2="1"><stop stop-color="#94c99b"/><stop offset="1" stop-color="#448d79"/></linearGradient><linearGradient id="clay" x2="0" y2="1"><stop stop-color="#f5b879"/><stop offset="1" stop-color="#dc805d"/></linearGradient><linearGradient id="wood" x2=".4" y2="1"><stop stop-color="#dca77a"/><stop offset="1" stop-color="#ac795e"/></linearGradient><radialGradient id="glow"><stop stop-color="#fff0a7" stop-opacity=".9"/><stop offset="1" stop-color="#ffe29a" stop-opacity="0"/></radialGradient></defs><defs><linearGradient id="sky" x2="0" y2="1"><stop stop-color="#cee0d7"/><stop offset=".7" stop-color="#f4e6c3"/><stop offset="1" stop-color="#e3d7af"/></linearGradient></defs><rect width="1440" height="900" fill="url(#sky)"/><circle cx="1050" cy="184" r="110" fill="#fff0c2" opacity=".8"/><g fill="#fff8e7" opacity=".65"><ellipse cx="320" cy="140" rx="125" ry="30"/><ellipse cx="366" cy="123" rx="69" ry="41"/><ellipse cx="1110" cy="360" rx="131" ry="23"/></g><path d="M0 570Q110 300 320 528Q460 207 690 481Q900 290 1060 510Q1260 246 1440 510V900H0Z" fill="#a7c3b3"/><path d="M0 680Q260 470 430 652Q684 409 900 623Q1121 459 1440 655V900H0Z" fill="#7fa99a"/><path d="M0 812Q110 620 339 757Q504 625 728 752Q933 605 1080 750Q1280 624 1440 784V900H0Z" fill="#608d7d"/></svg>