<svg width="128" height="160" xmlns="http://www.w3.org/2000/svg" viewBox="0 0 128 160"><defs><linearGradient id="leaf" x2=".8" y2="1"><stop stop-color="#94c99b"/><stop offset="1" stop-color="#448d79"/></linearGradient><linearGradient id="clay" x2="0" y2="1"><stop stop-color="#f5b879"/><stop offset="1" stop-color="#dc805d"/></linearGradient><linearGradient id="wood" x2=".4" y2="1"><stop stop-color="#dca77a"/><stop offset="1" stop-color="#ac795e"/></linearGradient><radialGradient id="glow"><stop stop-color="#fff0a7" stop-opacity=".9"/><stop offset="1" stop-color="#ffe29a" stop-opacity="0"/></radialGradient></defs><ellipse cx="64" cy="145" rx="33" ry="8" fill="#254842" opacity=".16"/><path d="M84 128Q123 143 116 109" fill="none" stroke="#d5b6cf" stroke-width="15" stroke-linecap="round"/><path d="M44 93Q37 117 39 140L56 140L64 130L72 140L89 140Q91 115 83 92" fill="#d5b6cf" stroke="#405c57" stroke-width="4" stroke-linejoin="round" stroke-linecap="round"/><path d="M31 65L34 22L55 43Q68 39 79 43L101 22L101 66Q114 98 67 104Q20 101 31 65" fill="#e4cadd" stroke="#405c57" stroke-width="4" stroke-linejoin="round" stroke-linecap="round"/><path d="M41 35L44 56L55 47M93 35L89 56L78 48" fill="#ba91b4"/><ellipse cx="50" cy="72" rx="4" ry="6" fill="#405c57"/><ellipse cx="82" cy="72" rx="4" ry="6" fill="#405c57"/><path d="M61 86L67 90L73 85M67 90L67 95" fill="none" stroke="#805b73" stroke-width="3"/><path d="M30 79L43 83M29 88L43 89M91 83L105 79M91 89L107 89" fill="none" stroke="#805b73" stroke-width="2"/><path d="M43 107Q65 116 87 107L82 122L46 122Z" fill="#f4d283"/><ellipse cx="64" cy="121" rx="13" ry="14" fill="#f7e9ef"/></svg>